<?xml version="1.0" encoding="UTF-8" standalone="no"?>
<svg
   xmlns:dc="http://purl.org/dc/elements/1.1/"
   xmlns:cc="http://creativecommons.org/ns#"
   xmlns:rdf="http://www.w3.org/1999/02/22-rdf-syntax-ns#"
   xmlns:svg="http://www.w3.org/2000/svg"
   xmlns="http://www.w3.org/2000/svg"
   xmlns:sodipodi="http://sodipodi.sourceforge.net/DTD/sodipodi-0.dtd"
   xmlns:inkscape="http://www.inkscape.org/namespaces/inkscape"
   id="Layer_1"
   data-name="Layer 1"
   viewBox="0 0 154.00001 154"
   version="1.1"
   sodipodi:docname="openai-scholars.svg"
   width="154"
   height="154"
   inkscape:version="0.92.2 (5c3e80d, 2017-08-06)">
  <metadata
     id="metadata833">
    <rdf:RDF>
      <cc:Work
         rdf:about="">
        <dc:format>image/svg+xml</dc:format>
        <dc:type
           rdf:resource="http://purl.org/dc/dcmitype/StillImage" />
      </cc:Work>
    </rdf:RDF>
  </metadata>
  <sodipodi:namedview
     pagecolor="#ffffff"
     bordercolor="#666666"
     borderopacity="1"
     objecttolerance="10"
     gridtolerance="10"
     guidetolerance="10"
     inkscape:pageopacity="0"
     inkscape:pageshadow="2"
     inkscape:window-width="2560"
     inkscape:window-height="1315"
     id="namedview831"
     showgrid="false"
     inkscape:zoom="5.9427588"
     inkscape:cx="52.940654"
     inkscape:cy="82.317369"
     inkscape:window-x="-13"
     inkscape:window-y="-13"
     inkscape:window-maximized="1"
     inkscape:current-layer="Layer_1" />
  <defs
     id="defs822">
    <style
       id="style815">.cls-1{fill:#fff;}.cls-2{fill:url(#linear-gradient);}</style>
    <linearGradient
       id="linear-gradient"
       x1="16.629999"
       y1="16.67"
       x2="62.66"
       y2="73.790001"
       gradientUnits="userSpaceOnUse"
       gradientTransform="matrix(2.068502,0,0,2.068502,0,-10.665329)">
      <stop
         offset="0"
         stop-color="#9b92bd"
         id="stop817" />
      <stop
         offset="1"
         stop-color="#acd68f"
         id="stop819" />
    </linearGradient>
  </defs>
  <title
     id="title824">Artboard 2</title>
  <path
     class="cls-1"
     d="M 153.99997,111.01311 V 42.986899 a 10.156345,8.9546562 0 0 0 -5.06783,-7.769212 L 82.098845,1.2045832 a 10.197715,8.9911314 0 0 0 -10.197715,0 L 5.088515,35.217687 A 10.17703,8.9728938 0 0 0 0,42.986899 v 68.026211 a 10.17703,8.9728938 0 0 0 5.088515,7.76922 l 66.812615,34.01309 a 10.197715,8.9911314 0 0 0 10.197715,0 l 66.833295,-34.01309 a 10.156345,8.9546562 0 0 0 5.06783,-7.76922 z"
     id="path826"
     inkscape:connector-curvature="0"
     style="fill:#ffffff;stroke-width:1.94227922" />
  <path
     class="cls-2"
     d="m 129.32275,60.429086 -10.54936,-6.081396 10.54936,-6.081396 a 1.6134316,1.6134316 0 0 0 0.78603,-1.365211 1.5513765,1.5513765 0 0 0 -0.78603,-1.344526 l -12.88677,-7.446608 a 1.6341166,1.6341166 0 0 0 -1.57206,0 l -12.10074,7.074277 -9.680589,-5.709066 10.549359,-6.102081 a 1.5513765,1.5513765 0 0 0 0.78603,-1.344526 1.6134316,1.6134316 0 0 0 -0.78603,-1.365211 L 90.745184,23.23742 a 1.5306915,1.5306915 0 0 0 -1.572062,0 L 78.603077,29.318815 V 17.156024 a 1.6134316,1.6134316 0 0 0 -0.786031,-1.365212 1.5927466,1.5927466 0 0 0 -1.551376,0 L 63.378902,23.23742 a 1.5100065,1.5100065 0 0 0 -0.786031,1.344526 v 13.983073 l -9.763329,5.626326 V 32.028553 a 1.6134316,1.6134316 0 0 0 -0.786031,-1.365211 1.5927466,1.5927466 0 0 0 -1.551377,0 l -12.886767,7.446607 a 1.5720615,1.5720615 0 0 0 -0.786031,1.365211 v 12.162792 l -10.54936,-6.081395 a 1.4893215,1.4893215 0 0 0 -1.551377,0 1.5100065,1.5100065 0 0 0 -0.786031,1.344526 v 14.831159 a 1.5100065,1.5100065 0 0 0 0.786031,1.344527 l 12.100737,6.991537 v 11.273336 l -10.54936,-6.081396 a 1.4893215,1.4893215 0 0 0 -1.551377,0 1.5100065,1.5100065 0 0 0 -0.786031,1.344526 v 14.872526 a 1.5720615,1.5720615 0 0 0 0.786031,1.36521 l 10.445935,6.12277 -10.487305,6.205512 a 1.5720615,1.5720615 0 0 0 -0.786031,1.36521 1.5100065,1.5100065 0 0 0 0.786031,1.34452 l 12.886768,7.44661 a 1.4272664,1.4272664 0 0 0 0.765345,0.20685 1.5513765,1.5513765 0 0 0 0.786031,-0.20685 l 12.100737,-6.99154 9.76333,5.62633 -10.528676,6.10208 a 1.5513765,1.5513765 0 0 0 0,2.68905 l 12.886768,7.44661 a 1.4272664,1.4272664 0 0 0 0.765346,0.20685 1.5513765,1.5513765 0 0 0 0.78603,-0.20685 l 10.549361,-6.0814 v 12.08006 a 1.5720615,1.5720615 0 0 0 0.786031,1.36521 1.4272664,1.4272664 0 0 0 0.765345,0.20685 1.5513765,1.5513765 0 0 0 0.786031,-0.20685 l 12.886768,-7.44661 a 1.5513765,1.5513765 0 0 0 0.78603,-1.34453 v -14.00375 l 9.763326,-5.62633 v 12.16279 a 1.5306915,1.5306915 0 0 0 0.76535,1.34453 1.4686364,1.4686364 0 0 0 1.57206,0 l 12.88677,-7.42592 a 1.6134316,1.6134316 0 0 0 0.78603,-1.36522 V 101.6957 l 10.52867,6.0814 a 1.5720615,1.5720615 0 0 0 2.3581,-1.34453 V 91.539358 a 1.5513765,1.5513765 0 0 0 -0.78603,-1.34453 L 117.22201,83.203293 V 71.929957 l 10.52868,6.081396 a 1.5720615,1.5720615 0 0 0 2.35809,-1.344526 V 61.732242 a 1.6134316,1.6134316 0 0 0 -0.78603,-1.303156 z M 101.2118,47.811224 V 59.08456 L 91.448474,53.458234 V 42.164213 Z m -37.088237,-6.536467 9.763329,5.626326 -9.763329,5.64701 -9.76333,-5.64701 5.502215,-3.164809 z M 39.922089,70.233786 49.644048,64.48335 v 11.273336 l -9.763329,5.647011 z m 22.753522,41.039084 -9.763329,-5.64701 V 94.249098 l 9.763329,5.64701 z m 27.324912,0.88945 -9.76333,-5.62632 9.76333,-5.64701 9.76333,5.64701 z m 24.098047,-28.959027 -9.76333,5.647011 V 77.576968 l 9.76333,-5.647011 z m -12.12142,-7.880992 a 1.5306915,1.5306915 0 0 0 -0.76535,1.344526 v 14.872531 a 1.5927466,1.5927466 0 0 0 0.76535,1.36521 1.5927466,1.5927466 0 0 0 1.57206,0 l 10.54936,-6.205506 v 11.273336 l -9.99086,5.771122 -1.34453,0.76535 -12.100736,-6.970862 a 1.5306915,1.5306915 0 0 0 -1.572062,0 L 76.2243,105.17079 a 1.5720615,1.5720615 0 0 0 -0.786031,1.36521 1.5100065,1.5100065 0 0 0 0.786031,1.34452 l 10.528675,6.0814 -9.76333,5.64701 -11.314706,-6.53647 V 98.965278 a 1.5513765,1.5513765 0 0 0 -0.786031,-1.34453 l -12.886767,-7.4466 a 1.4893215,1.4893215 0 0 0 -1.551377,0 1.5100065,1.5100065 0 0 0 -0.786031,1.34452 v 12.204172 l -2.089187,-1.24111 -7.591402,-4.405912 V 85.00289 l 12.100737,-6.991537 a 1.5513765,1.5513765 0 0 0 0.786031,-1.344526 V 61.732242 a 1.6134316,1.6134316 0 0 0 -0.786031,-1.365211 1.5927466,1.5927466 0 0 0 -1.551377,0 l -10.54936,6.081396 V 55.257831 L 51.29885,48.70068 63.420272,55.692216 a 1.4272664,1.4272664 0 0 0 0.765346,0.206851 1.5513765,1.5513765 0 0 0 0.78603,-0.206851 l 12.886768,-7.425922 a 1.6134316,1.6134316 0 0 0 0.786031,-1.365211 1.5513765,1.5513765 0 0 0 -0.786031,-1.344526 l -10.54936,-6.081397 9.763329,-5.64701 11.335391,6.536466 V 54.34769 a 1.5306915,1.5306915 0 0 0 0.765346,1.344526 l 12.886768,7.446608 a 1.5720615,1.5720615 0 0 0 2.27535,-1.406582 V 49.61082 l 9.76333,5.647011 v 13.072933 z m 13.6728,-34.047544 9.76333,5.626326 -9.76333,5.64701 -9.76333,-5.64701 z m -25.773537,-14.893215 9.763329,5.647011 -9.763329,5.626326 -2.440833,-1.406582 -7.322497,-4.137004 z m -24.201474,-0.889455 9.76333,-5.647011 v 11.273336 l -9.76333,5.647011 z m -25.773535,14.872529 9.742644,-5.5229 v 11.169911 l -5.5229,3.164808 -4.240429,2.461517 z m -12.886768,9.246204 9.76333,5.647011 v 11.252651 l -9.76333,-5.626325 z m 0,29.765745 9.76333,5.626325 v 11.273338 l -9.76333,-5.58496 z m 11.314706,32.682335 -9.763329,-5.62633 9.763329,-5.64701 9.76333,5.64701 z m 25.794221,14.89321 -9.784015,-5.64701 9.784015,-5.62632 5.5229,3.1648 4.240429,2.46152 z m 24.201473,0.9722 -9.721959,5.56427 v -11.27334 l 9.763329,-5.64701 z m 16.010204,-9.24621 v -11.43881 l 9.76333,-5.62633 v 11.27334 z m 22.75352,-14.87252 -9.76332,-5.647022 V 86.802487 l 9.76332,5.647011 z m 0,-29.765751 -9.76332,-5.626325 V 57.057428 l 9.76332,5.626325 z"
     id="path828"
     style="fill:url(#linear-gradient);stroke-width:2.06850195"
     inkscape:connector-curvature="0" />
</svg>
