<?xml version="1.0" standalone="no"?>
<!DOCTYPE svg PUBLIC "-//W3C//DTD SVG 20010904//EN"
 "http://www.w3.org/TR/2001/REC-SVG-20010904/DTD/svg10.dtd">
<svg version="1.0" xmlns="http://www.w3.org/2000/svg"
 width="802.000000pt" height="206.000000pt" viewBox="0 0 802.000000 206.000000"
 preserveAspectRatio="xMidYMid meet">

<g transform="translate(0.000000,206.000000) scale(0.100000,-0.100000)"
fill="#000000" stroke="none">
<path d="M200 1964 c-11 -28 -13 -48 -4 -56 3 -3 6 -223 7 -489 l2 -484 1034
-3 c796 -2 1037 -5 1042 -14 6 -9 16 -8 43 5 20 9 36 20 36 25 0 7 -62 42 -75
42 -3 0 -5 -7 -5 -15 0 -13 -118 -15 -1020 -14 l-1021 0 1 504 c1 277 -1 509
-5 515 -11 17 -25 11 -35 -16z"/>
<path d="M2994 1979 c-5 -9 -6 -345 0 -894 l1 -150 1038 -3 c680 -1 1037 -6
1037 -12 0 -13 23 -13 55 2 33 15 32 29 -7 51 -29 17 -33 17 -44 3 -10 -14
-115 -16 -1028 -16 l-1017 0 1 505 c1 277 -1 509 -5 515 -8 13 -22 13 -31 -1z"/>
<path d="M5790 1964 c-6 -15 -7 -42 -4 -62 4 -19 7 -245 8 -501 l1 -466 1038
-3 c680 -1 1037 -6 1037 -12 0 -15 33 -12 58 6 30 21 28 27 -13 47 -44 21 -45
21 -45 2 0 -14 -102 -16 -982 -14 -541 1 -1000 4 -1021 7 l-38 5 1 498 c1 274
-1 503 -5 509 -11 17 -25 11 -35 -16z"/>
<path d="M993 1890 c0 -30 2 -43 4 -27 3 21 10 27 29 27 19 0 24 -5 24 -25 0
-14 5 -25 10 -25 6 0 10 23 10 50 0 28 -4 50 -10 50 -5 0 -10 -9 -10 -20 0
-30 -47 -28 -53 3 -2 12 -4 -3 -4 -33z"/>
<path d="M1201 1890 c1 -46 3 -50 8 -21 8 48 31 53 31 7 0 -20 5 -36 11 -36 6
0 9 16 7 37 -2 29 -8 39 -23 42 -11 2 -23 8 -27 15 -4 6 -7 -14 -7 -44z"/>
<path d="M3783 1890 c0 -30 2 -43 4 -27 3 21 10 27 29 27 19 0 24 -5 24 -25 0
-14 5 -25 10 -25 6 0 10 23 10 50 0 28 -4 50 -10 50 -5 0 -10 -9 -10 -20 0
-30 -47 -28 -53 3 -2 12 -4 -3 -4 -33z"/>
<path d="M3991 1890 c1 -46 3 -50 8 -21 8 48 31 53 31 7 0 -20 5 -36 11 -36 6
0 9 16 7 37 -2 29 -8 39 -23 42 -11 2 -23 8 -27 15 -4 6 -7 -14 -7 -44z"/>
<path d="M4100 1890 c0 -46 2 -50 24 -50 48 0 62 56 18 75 -12 5 -22 13 -22
17 0 5 -4 8 -10 8 -5 0 -10 -22 -10 -50z m50 -10 c0 -20 -5 -30 -15 -30 -15 0
-21 40 -8 53 14 15 23 6 23 -23z"/>
<path d="M6242 1893 l-2 -53 33 1 c29 2 29 2 5 6 -24 4 -27 9 -31 51 l-3 47
-2 -52z"/>
<path d="M6540 1892 c0 -52 1 -53 28 -50 24 3 27 7 27 38 0 27 -5 36 -20 39
-11 2 -23 8 -27 15 -4 6 -8 -13 -8 -42z m45 -12 c0 -27 -22 -39 -31 -16 -8 22
3 49 19 43 6 -2 12 -14 12 -27z"/>
<path d="M6883 1890 c0 -30 2 -43 4 -27 2 15 2 39 0 55 -2 15 -4 2 -4 -28z"/>
<path d="M1093 1880 c0 -25 2 -35 4 -22 2 12 2 32 0 45 -2 12 -4 2 -4 -23z"/>
<path d="M1120 1905 c-17 -20 -9 -48 18 -60 30 -13 28 -29 -4 -21 -17 5 -23 3
-19 -4 8 -14 38 -13 53 2 7 7 12 31 12 55 0 39 -2 43 -24 43 -13 0 -29 -7 -36
-15z m40 -25 c0 -20 -5 -30 -15 -30 -10 0 -15 10 -15 30 0 20 5 30 15 30 10 0
15 -10 15 -30z"/>
<path d="M1310 1911 c0 -18 22 -71 30 -71 9 0 31 56 29 74 0 6 -7 -2 -14 -19
l-13 -30 -11 28 c-10 26 -21 36 -21 18z"/>
<path d="M1385 1910 c-4 -7 2 -9 19 -4 15 3 26 2 26 -4 0 -5 -12 -13 -26 -16
-36 -9 -28 -40 11 -44 30 -3 31 -2 27 38 -4 34 -7 40 -27 40 -13 0 -27 -5 -30
-10z m45 -39 c0 -14 -18 -23 -31 -15 -8 4 -7 9 2 15 18 11 29 11 29 0z"/>
<path d="M1460 1880 c0 -22 5 -40 10 -40 6 0 10 15 10 34 0 19 6 37 13 39 6 3
2 6 -10 6 -20 1 -23 -4 -23 -39z"/>
<path d="M1513 1880 c0 -25 2 -35 4 -22 2 12 2 32 0 45 -2 12 -4 2 -4 -23z"/>
<path d="M1544 1909 c-4 -7 0 -9 14 -5 11 4 23 3 26 -3 3 -5 -6 -12 -20 -15
-36 -9 -28 -41 11 -43 29 -1 30 0 27 38 -4 33 -8 39 -27 39 -13 0 -27 -5 -31
-11z m46 -39 c0 -13 -28 -25 -38 -16 -3 4 0 11 8 16 20 13 30 12 30 0z"/>
<path d="M1621 1878 c2 -42 2 -42 8 -9 8 48 31 53 31 7 0 -20 5 -36 11 -36 6
0 9 16 7 38 -3 32 -7 37 -30 40 -27 3 -28 2 -27 -40z"/>
<path d="M1702 1908 c-25 -25 -6 -68 29 -68 10 0 21 5 24 10 4 7 -2 9 -19 4
-24 -6 -26 -4 -26 26 0 27 3 32 20 27 11 -3 20 -1 20 4 0 13 -34 11 -48 -3z"/>
<path d="M1770 1901 c-8 -15 -8 -27 0 -41 11 -20 44 -27 54 -12 3 5 -4 8 -16
8 -12 -1 -23 5 -25 12 -3 7 5 12 22 12 20 0 26 4 23 18 -5 25 -44 27 -58 3z
m45 -1 c3 -5 -3 -10 -15 -10 -12 0 -18 5 -15 10 3 6 10 10 15 10 5 0 12 -4 15
-10z"/>
<path d="M3883 1880 c0 -25 2 -35 4 -22 2 12 2 32 0 45 -2 12 -4 2 -4 -23z"/>
<path d="M3910 1905 c-17 -20 -9 -48 18 -60 30 -13 28 -29 -4 -21 -17 5 -23 3
-19 -4 8 -14 38 -13 53 2 7 7 12 31 12 55 0 39 -2 43 -24 43 -13 0 -29 -7 -36
-15z m40 -25 c0 -20 -5 -30 -15 -30 -10 0 -15 10 -15 30 0 20 5 30 15 30 10 0
15 -10 15 -30z"/>
<path d="M4180 1880 c0 -22 5 -40 10 -40 6 0 10 18 10 40 0 22 -4 40 -10 40
-5 0 -10 -18 -10 -40z"/>
<path d="M4215 1910 c-4 -7 2 -9 19 -4 15 3 26 2 26 -4 0 -5 -12 -13 -26 -16
-36 -9 -28 -40 11 -44 30 -3 31 -2 27 38 -4 34 -7 40 -27 40 -13 0 -27 -5 -30
-10z m45 -39 c0 -14 -18 -23 -31 -15 -8 4 -7 9 2 15 18 11 29 11 29 0z"/>
<path d="M4297 1913 c-13 -13 -7 -31 13 -36 11 -3 20 -11 20 -17 0 -8 -8 -10
-21 -7 -15 4 -19 3 -12 -4 15 -15 47 -7 51 13 2 12 -5 19 -22 24 -14 3 -26 11
-26 16 0 6 9 8 20 5 11 -3 20 -1 20 4 0 10 -33 12 -43 2z"/>
<path d="M6320 1901 c-15 -29 4 -63 33 -59 18 2 22 10 22 38 0 28 -4 36 -22
38 -14 2 -26 -4 -33 -17z m45 -21 c0 -27 -22 -39 -31 -16 -8 22 3 49 19 43 6
-2 12 -14 12 -27z"/>
<path d="M6393 1904 c3 -11 8 -29 12 -41 8 -28 25 -30 25 -3 0 11 5 20 10 20
6 0 10 -9 10 -20 0 -28 17 -25 24 4 3 13 9 32 13 42 4 12 3 15 -5 10 -7 -4
-12 -16 -12 -27 0 -11 -4 -17 -10 -14 -5 3 -10 15 -10 26 0 28 -14 23 -27 -8
-10 -25 -11 -26 -12 -6 -1 12 -6 25 -12 29 -7 4 -9 0 -6 -12z"/>
<path d="M6623 1880 c0 -25 2 -35 4 -22 2 12 2 32 0 45 -2 12 -4 2 -4 -23z"/>
<path d="M6656 1912 c-3 -6 3 -8 14 -5 26 7 26 -14 0 -22 -11 -3 -20 -15 -20
-26 0 -15 6 -19 30 -17 29 2 31 5 28 38 -2 27 -8 36 -25 38 -11 2 -24 -1 -27
-6z m34 -47 c0 -8 -7 -15 -15 -15 -26 0 -18 20 13 29 1 1 2 -6 2 -14z"/>
<path d="M6727 1913 c-13 -12 -7 -23 18 -35 34 -15 32 -32 -2 -23 -21 5 -25 4
-17 -5 7 -7 20 -10 30 -8 27 5 30 35 5 43 -12 3 -21 11 -21 16 0 6 9 7 21 4
15 -5 19 -4 15 4 -8 12 -39 15 -49 4z"/>
<path d="M6912 1908 c-27 -27 -3 -73 35 -66 27 5 25 72 -2 76 -11 1 -26 -3
-33 -10z m43 -28 c0 -13 -6 -25 -12 -27 -16 -6 -27 21 -19 43 9 23 31 11 31
-16z"/>
<path d="M6983 1904 c3 -11 8 -29 12 -41 8 -28 25 -30 25 -3 0 11 5 20 10 20
6 0 10 -9 10 -20 0 -28 17 -25 24 4 3 13 9 32 13 42 4 12 3 15 -5 10 -7 -4
-12 -16 -12 -27 0 -11 -4 -17 -10 -14 -5 3 -10 15 -10 26 0 28 -14 23 -27 -8
-10 -25 -11 -26 -12 -6 -1 12 -6 25 -12 29 -7 4 -9 0 -6 -12z"/>
<path d="M7124 1904 c3 -9 9 -27 12 -40 9 -33 25 -26 40 19 15 42 3 51 -13 10
l-10 -28 -8 28 c-4 15 -12 27 -17 27 -6 0 -7 -7 -4 -16z"/>
<path d="M7206 1912 c-3 -6 3 -8 14 -5 29 8 25 -12 -6 -26 -33 -15 -26 -35 15
-39 32 -3 32 -3 29 35 -2 30 -7 39 -25 41 -11 2 -24 -1 -27 -6z m34 -41 c0
-12 -20 -25 -27 -18 -7 7 6 27 18 27 5 0 9 -4 9 -9z"/>
<path d="M7281 1878 c2 -43 2 -43 8 -9 8 48 31 53 31 7 0 -20 5 -36 10 -36 6
0 10 18 10 40 0 38 -2 40 -30 40 -29 0 -30 -2 -29 -42z"/>
<path d="M7355 1910 c-4 -7 2 -9 19 -4 15 3 26 2 26 -4 0 -5 -12 -13 -26 -16
-36 -9 -28 -40 11 -44 30 -3 31 -2 27 38 -4 34 -7 40 -27 40 -13 0 -27 -5 -30
-10z m45 -39 c0 -14 -18 -23 -31 -15 -8 4 -7 9 2 15 18 11 29 11 29 0z"/>
<path d="M7430 1881 c0 -23 5 -41 10 -41 6 0 10 16 10 36 0 46 22 41 32 -7 6
-34 6 -34 5 6 -2 36 -5 40 -29 43 -27 3 -28 1 -28 -37z"/>
<path d="M7514 1906 c-16 -41 20 -86 47 -59 6 6 1 9 -13 9 -18 -1 -23 4 -23
24 0 20 4 25 23 23 13 -2 21 1 17 7 -9 15 -45 12 -51 -4z"/>
<path d="M7584 1906 c-16 -41 20 -86 47 -59 6 6 1 9 -12 9 -12 -1 -24 5 -26
12 -3 8 6 12 26 12 33 0 39 8 19 28 -16 16 -47 15 -54 -2z m46 -6 c0 -5 -9
-10 -21 -10 -11 0 -17 5 -14 10 3 6 13 10 21 10 8 0 14 -4 14 -10z"/>
<path d="M1527 1664 c-3 -4 -4 -18 -1 -33 3 -14 -2 -46 -10 -70 -9 -24 -16
-49 -15 -55 1 -6 11 20 24 59 l23 69 21 -34 c12 -19 19 -43 17 -54 -3 -10 1
-25 9 -32 12 -12 15 -11 20 5 3 12 -4 33 -20 58 -15 21 -29 50 -32 66 -5 25
-22 35 -36 21z"/>
<path d="M4315 1660 c-8 -14 3 -30 21 -30 8 0 14 9 14 20 0 21 -24 28 -35 10z"/>
<path d="M7115 1660 c-8 -14 3 -30 21 -30 8 0 14 9 14 20 0 21 -24 28 -35 10z"/>
<path d="M1226 1626 c-8 -14 -31 -37 -51 -51 -39 -30 -58 -29 -115 6 -27 17
-51 23 -108 23 -48 1 -72 -3 -72 -11 0 -6 -21 -37 -47 -68 -43 -53 -47 -56
-60 -39 -7 10 -13 28 -13 41 0 16 -6 23 -20 23 -11 0 -20 -4 -20 -9 0 -5 -10
-12 -22 -14 -20 -4 -19 -4 5 -6 35 -1 67 -33 60 -60 -4 -16 -1 -21 16 -21 11
0 21 6 21 13 0 23 70 106 103 122 35 18 83 20 93 4 3 -6 15 -8 26 -6 27 7 85
-21 91 -44 6 -24 26 -25 34 -2 9 24 52 62 90 79 29 13 37 12 87 -6 30 -12 60
-27 66 -35 7 -8 18 -15 24 -15 15 0 56 -65 56 -90 0 -19 19 -27 32 -14 9 8 -3
45 -12 39 -10 -6 -45 41 -60 79 -6 17 -17 26 -32 26 -31 0 -121 35 -126 49 -6
19 -29 12 -46 -13z"/>
<path d="M4024 1639 c-8 -14 11 -33 25 -25 6 4 11 14 11 22 0 16 -26 19 -36 3z"/>
<path d="M6720 1640 c-63 -4 -135 -15 -159 -24 -24 -9 -54 -13 -67 -10 -18 5
-24 2 -24 -10 0 -9 -24 -28 -60 -46 -47 -24 -60 -27 -60 -15 0 8 -9 15 -20 15
-21 0 -27 -24 -9 -36 10 -6 -32 -35 -121 -85 -48 -26 -199 -175 -258 -252 -15
-20 -35 -36 -44 -37 -21 0 -23 -19 -5 -44 11 -16 17 -11 57 44 25 34 46 57 48
51 5 -14 29 -14 37 -1 4 6 2 17 -4 24 -16 18 106 133 228 214 137 92 331 182
331 153 0 -19 28 -12 35 9 6 18 15 20 95 20 96 0 221 -22 257 -45 12 -8 29
-15 36 -15 20 0 117 -44 215 -97 60 -33 80 -49 73 -56 -18 -18 -12 -37 10 -37
16 0 20 5 16 20 -4 16 7 12 57 -22 136 -91 332 -252 339 -279 7 -26 31 -20 35
8 2 15 -20 38 -90 94 -51 40 -96 77 -99 82 -4 5 -15 14 -27 20 -11 7 -73 48
-138 92 -174 118 -435 245 -504 245 -10 0 -25 7 -34 15 -8 8 -18 14 -23 13 -4
0 -60 -4 -123 -8z"/>
<path d="M3672 1593 c4 -21 33 -25 33 -3 0 8 -8 16 -18 18 -14 3 -18 -1 -15
-15z"/>
<path d="M3790 1590 c0 -23 25 -27 33 -6 7 16 -1 26 -20 26 -7 0 -13 -9 -13
-20z"/>
<path d="M91 1594 c-1 -6 4 -26 10 -44 9 -26 9 -34 -2 -41 -10 -6 -10 -9 -2
-9 15 0 29 25 37 70 6 33 6 34 -7 12 l-13 -23 -12 23 c-6 13 -11 18 -11 12z"/>
<path d="M2881 1594 c-1 -6 4 -26 10 -44 9 -26 9 -34 -2 -41 -10 -6 -10 -9 -2
-9 15 0 29 25 37 70 6 33 6 34 -7 12 l-13 -23 -12 23 c-6 13 -11 18 -11 12z"/>
<path d="M5681 1594 c-1 -6 4 -26 10 -44 9 -26 9 -34 -2 -41 -10 -6 -10 -9 -2
-9 15 0 29 25 37 70 6 33 6 34 -7 12 l-13 -23 -12 23 c-6 13 -11 18 -11 12z"/>
<path d="M4182 1573 c4 -21 33 -25 33 -3 0 8 -8 16 -18 18 -14 3 -18 -1 -15
-15z"/>
<path d="M3512 1533 c2 -10 10 -18 18 -18 8 0 16 8 18 18 2 12 -3 17 -18 17
-15 0 -20 -5 -18 -17z"/>
<path d="M3904 1539 c-8 -14 11 -33 25 -25 6 4 11 14 11 22 0 16 -26 19 -36 3z"/>
<path d="M4374 1539 c-7 -12 15 -31 28 -23 4 3 8 12 8 20 0 17 -26 19 -36 3z"/>
<path d="M6704 1539 c-8 -14 11 -33 25 -25 16 10 13 36 -3 36 -8 0 -18 -5 -22
-11z"/>
<path d="M7174 1539 c-7 -12 15 -31 28 -23 4 3 8 12 8 20 0 17 -26 19 -36 3z"/>
<path d="M609 1528 c-1 -2 -3 -20 -4 -40 -7 -68 -46 -109 -107 -112 -24 -1
-34 -7 -36 -21 -5 -39 -35 -135 -42 -135 -10 0 -46 43 -54 63 -10 29 -31 14
-32 -24 0 -19 -3 -52 -7 -74 -5 -29 -2 -25 9 15 9 30 18 57 20 59 8 9 54 -43
54 -61 0 -13 6 -18 18 -16 12 3 16 12 14 29 -3 37 24 108 53 136 14 15 40 27
63 30 38 5 40 7 46 51 6 48 29 82 55 83 12 0 11 3 -4 9 -20 8 -44 12 -46 8z"/>
<path d="M3394 1519 c-7 -12 15 -31 28 -23 4 3 8 12 8 20 0 17 -26 19 -36 3z"/>
<path d="M6194 1519 c-7 -12 15 -31 28 -23 4 3 8 12 8 20 0 17 -26 19 -36 3z"/>
<path d="M1612 1465 c0 -16 2 -22 5 -12 2 9 2 23 0 30 -3 6 -5 -1 -5 -18z"/>
<path d="M3550 1455 c0 -8 9 -15 20 -15 11 0 20 7 20 15 0 8 -9 15 -20 15 -11
0 -20 -7 -20 -15z"/>
<path d="M4260 1455 c0 -10 7 -15 18 -13 21 4 19 22 -2 26 -10 2 -16 -3 -16
-13z"/>
<path d="M6350 1455 c0 -8 9 -15 20 -15 11 0 20 7 20 15 0 8 -9 15 -20 15 -11
0 -20 -7 -20 -15z"/>
<path d="M7060 1455 c0 -10 7 -15 18 -13 21 4 19 22 -2 26 -10 2 -16 -3 -16
-13z"/>
<path d="M1863 1398 c0 -48 1 -50 9 -21 4 18 13 35 18 38 17 10 11 35 -8 35
-15 0 -18 -9 -19 -52z"/>
<path d="M4650 1435 c0 -8 9 -15 20 -15 11 0 20 7 20 15 0 8 -9 15 -20 15 -11
0 -20 -7 -20 -15z"/>
<path d="M7450 1435 c0 -8 9 -15 20 -15 11 0 20 7 20 15 0 8 -9 15 -20 15 -11
0 -20 -7 -20 -15z"/>
<path d="M1611 1416 c-19 -23 -6 -34 41 -34 24 -1 44 -6 46 -11 2 -6 11 -11
19 -11 22 0 103 -68 103 -86 0 -9 7 -14 17 -12 13 2 18 14 19 43 1 22 0 30 -3
18 -2 -13 -9 -23 -16 -23 -20 0 -89 54 -97 76 -8 19 -14 22 -48 17 -32 -4 -42
-1 -54 16 -13 19 -17 19 -27 7z"/>
<path d="M3362 1408 c-6 -6 -8 -17 -5 -25 5 -13 -4 -15 -53 -13 -32 2 -96 2
-141 2 -69 -2 -83 -5 -83 -18 0 -15 21 -16 203 -10 111 3 552 9 980 12 651 5
777 9 777 20 0 12 -47 14 -262 15 -145 1 -282 1 -304 0 -30 -2 -43 2 -47 13
-7 19 -37 10 -37 -10 0 -12 -79 -14 -500 -14 -429 0 -500 2 -500 14 0 20 -15
27 -28 14z"/>
<path d="M7201 1410 c-16 -9 -6 -30 15 -30 15 0 20 25 6 34 -4 2 -14 1 -21 -4z"/>
<path d="M1890 1407 c0 -4 12 -31 27 -60 14 -29 26 -64 25 -79 -2 -28 20 -40
33 -18 3 6 21 11 38 11 29 2 29 2 -8 8 -37 6 -42 10 -77 76 -21 39 -38 66 -38
62z"/>
<path d="M6057 1374 c-14 -15 -6 -34 14 -34 14 0 19 5 17 17 -3 18 -20 27 -31
17z"/>
<path d="M2095 1291 c-6 -5 -19 -11 -30 -14 -16 -4 -14 -5 6 -6 29 -1 44 -15
52 -46 3 -11 5 0 4 24 -2 44 -14 60 -32 42z"/>
<path d="M3127 1294 c-14 -14 -7 -35 11 -32 9 2 17 10 17 17 0 16 -18 25 -28
15z"/>
<path d="M4617 1294 c-14 -14 -7 -35 11 -32 9 2 17 10 17 17 0 16 -18 25 -28
15z"/>
<path d="M4885 1291 c-8 -15 3 -31 21 -31 9 0 14 7 12 17 -4 20 -24 28 -33 14z"/>
<path d="M5927 1294 c-14 -14 -7 -35 11 -32 9 2 17 10 17 17 0 16 -18 25 -28
15z"/>
<path d="M7417 1294 c-14 -14 -7 -35 11 -32 9 2 17 10 17 17 0 16 -18 25 -28
15z"/>
<path d="M7685 1291 c-8 -15 3 -31 21 -31 9 0 14 7 12 17 -4 20 -24 28 -33 14z"/>
<path d="M4730 1260 c0 -15 5 -20 18 -18 9 2 17 10 17 18 0 8 -8 16 -17 18
-13 2 -18 -3 -18 -18z"/>
<path d="M3200 1200 c0 -15 5 -20 18 -18 9 2 17 10 17 18 0 8 -8 16 -17 18
-13 2 -18 -3 -18 -18z"/>
<path d="M2132 1180 c0 -14 2 -19 5 -12 2 6 2 18 0 25 -3 6 -5 1 -5 -13z"/>
<path d="M2142 1130 c2 -14 -1 -31 -6 -38 -12 -19 10 -40 26 -24 9 9 9 17 1
34 -7 13 -14 30 -17 38 -3 8 -5 4 -4 -10z"/>
<path d="M292 1123 c4 -21 33 -25 33 -3 0 8 -8 16 -18 18 -14 3 -18 -1 -15
-15z"/>
<path d="M3082 1123 c2 -10 10 -18 18 -18 22 0 18 29 -3 33 -14 3 -18 -1 -15
-15z"/>
<path d="M4924 1089 c-8 -14 11 -33 25 -25 16 10 13 36 -3 36 -8 0 -18 -5 -22
-11z"/>
<path d="M1372 891 c9 -15 9 -23 -1 -35 -8 -10 -9 -16 -3 -16 6 0 14 5 17 10
5 8 12 7 23 -2 13 -11 14 -11 4 7 -7 15 -7 26 1 40 9 18 9 18 -5 7 -11 -9 -18
-10 -23 -2 -3 5 -10 10 -16 10 -5 0 -4 -9 3 -19z"/>
<path d="M4162 891 c9 -15 9 -23 -1 -35 -8 -10 -9 -16 -3 -16 6 0 14 5 17 10
5 8 12 7 23 -2 13 -11 14 -11 4 7 -7 15 -7 26 1 40 9 18 9 18 -5 7 -11 -9 -18
-10 -23 -2 -3 5 -10 10 -16 10 -5 0 -4 -9 3 -19z"/>
<path d="M6962 891 c9 -15 9 -23 -1 -35 -8 -10 -9 -16 -3 -16 6 0 14 5 17 10
5 8 12 7 23 -2 13 -11 14 -11 4 7 -7 15 -7 26 1 40 9 18 9 18 -5 7 -11 -9 -18
-10 -23 -2 -3 5 -10 10 -16 10 -5 0 -4 -9 3 -19z"/>
<path d="M1172 298 c-7 -7 -12 -22 -12 -35 0 -20 -5 -23 -37 -24 -21 -1 -46
-1 -55 0 -16 2 -18 -7 -18 -63 0 -51 3 -66 14 -66 11 0 16 14 18 47 2 38 8 50
27 59 39 20 51 8 51 -52 0 -30 5 -54 10 -54 6 0 10 25 10 55 0 48 2 55 20 55
11 0 20 5 20 10 0 6 -9 10 -20 10 -11 0 -20 4 -20 9 0 21 13 41 26 41 8 0 14
5 14 10 0 14 -33 13 -48 -2z"/>
<path d="M3770 271 c0 -39 0 -40 -34 -34 -27 4 -36 1 -50 -18 -20 -29 -20 -58
-1 -87 13 -17 24 -21 60 -20 l45 2 0 98 c0 59 -4 98 -10 98 -5 0 -10 -18 -10
-39z m-12 -63 c30 -30 -2 -93 -36 -71 -21 13 -27 50 -12 69 15 17 32 18 48 2z"/>
<path d="M4092 298 c-7 -7 -12 -22 -12 -35 0 -20 -5 -23 -37 -24 -21 -1 -46
-1 -55 0 -16 2 -18 -7 -18 -63 0 -51 3 -66 14 -66 11 0 16 14 18 47 2 38 8 50
27 59 39 20 51 8 51 -52 0 -30 5 -54 10 -54 6 0 10 25 10 55 0 48 2 55 20 55
11 0 20 5 20 10 0 6 -9 10 -20 10 -11 0 -20 4 -20 9 0 21 13 41 26 41 8 0 14
5 14 10 0 14 -33 13 -48 -2z"/>
<path d="M6770 210 c0 -82 3 -100 15 -100 12 0 15 18 15 100 0 82 -3 100 -15
100 -12 0 -15 -18 -15 -100z"/>
<path d="M7480 271 c0 -39 0 -40 -34 -34 -27 4 -36 1 -50 -18 -20 -29 -20 -58
-1 -87 13 -17 24 -21 60 -20 l45 2 0 98 c0 59 -4 98 -10 98 -5 0 -10 -18 -10
-39z m-12 -63 c30 -30 -2 -93 -36 -71 -21 13 -27 50 -12 69 15 17 32 18 48 2z"/>
<path d="M618 280 c-23 -14 -41 -74 -33 -110 21 -96 165 -72 165 28 0 56 -31
92 -78 92 -20 0 -45 -5 -54 -10z m86 -26 c21 -20 20 -83 -1 -106 -22 -25 -59
-23 -77 4 -45 64 25 156 78 102z"/>
<path d="M1240 275 c0 -8 7 -15 15 -15 8 0 15 7 15 15 0 8 -7 15 -15 15 -8 0
-15 -7 -15 -15z"/>
<path d="M1510 275 c0 -8 7 -15 15 -15 8 0 15 7 15 15 0 8 -7 15 -15 15 -8 0
-15 -7 -15 -15z"/>
<path d="M3342 214 c4 -85 17 -104 73 -104 50 0 65 25 65 108 0 41 -4 72 -10
72 -6 0 -10 -27 -10 -61 0 -71 -12 -99 -43 -99 -37 0 -47 19 -47 92 0 56 -3
68 -16 68 -14 0 -16 -11 -12 -76z"/>
<path d="M4160 275 c0 -8 7 -15 15 -15 8 0 15 7 15 15 0 8 -7 15 -15 15 -8 0
-15 -7 -15 -15z"/>
<path d="M4430 275 c0 -8 7 -15 15 -15 8 0 15 7 15 15 0 8 -7 15 -15 15 -8 0
-15 -7 -15 -15z"/>
<path d="M6474 277 c-3 -8 -4 -47 -2 -88 l3 -74 44 -3 c65 -5 107 44 66 78
-11 9 -12 17 -4 32 18 34 -13 68 -62 68 -24 0 -42 -5 -45 -13z m80 -22 c9 -25
-4 -45 -30 -45 -20 0 -24 5 -24 30 0 25 4 30 24 30 13 0 26 -7 30 -15z m10
-88 c13 -21 -5 -37 -41 -37 -19 0 -23 5 -23 31 0 27 3 30 26 27 15 -2 32 -11
38 -21z"/>
<path d="M1320 255 c0 -8 -8 -15 -17 -15 -17 -1 -17 -1 -1 -13 11 -9 18 -31
20 -63 3 -45 5 -49 31 -52 31 -4 37 13 7 21 -16 4 -20 14 -20 46 0 34 3 41 20
41 11 0 20 5 20 10 0 6 -9 10 -20 10 -11 0 -20 7 -20 15 0 8 -4 15 -10 15 -5
0 -10 -7 -10 -15z"/>
<path d="M1420 255 c0 -8 -8 -15 -17 -15 -17 -1 -17 -1 -1 -13 11 -9 18 -31
20 -63 3 -45 5 -49 31 -52 31 -4 37 13 7 21 -16 4 -20 14 -20 46 0 34 3 41 20
41 11 0 20 5 20 10 0 6 -9 10 -20 10 -11 0 -20 7 -20 15 0 8 -4 15 -10 15 -5
0 -10 -7 -10 -15z"/>
<path d="M4240 255 c0 -8 -8 -15 -17 -15 -17 -1 -17 -1 -1 -13 11 -9 18 -31
20 -63 3 -45 5 -49 31 -52 31 -4 37 13 7 21 -16 4 -20 14 -20 46 0 34 3 41 20
41 11 0 20 5 20 10 0 6 -9 10 -20 10 -11 0 -20 7 -20 15 0 8 -4 15 -10 15 -5
0 -10 -7 -10 -15z"/>
<path d="M4340 255 c0 -8 -8 -15 -17 -15 -17 -1 -17 -1 -1 -13 11 -9 18 -31
20 -63 3 -45 5 -49 31 -52 31 -4 37 13 7 21 -16 4 -20 14 -20 46 0 34 3 41 20
41 11 0 20 5 20 10 0 6 -9 10 -20 10 -11 0 -20 7 -20 15 0 8 -4 15 -10 15 -5
0 -10 -7 -10 -15z"/>
<path d="M784 178 c32 -84 52 -84 83 -3 27 70 27 65 9 65 -8 0 -22 -22 -32
-52 l-17 -53 -17 50 c-10 29 -24 51 -33 53 -14 3 -13 -5 7 -60z"/>
<path d="M920 220 c-54 -54 10 -132 84 -104 28 11 17 24 -14 18 -29 -6 -60 8
-60 27 0 5 20 9 45 9 40 0 45 2 45 23 0 13 -5 28 -12 35 -19 19 -66 14 -88 -8z
m74 -15 c4 -12 -3 -15 -29 -15 -33 0 -43 8 -28 23 12 13 51 7 57 -8z"/>
<path d="M1240 175 c0 -51 3 -65 15 -65 12 0 15 14 15 65 0 51 -3 65 -15 65
-12 0 -15 -14 -15 -65z"/>
<path d="M1510 175 c0 -51 3 -65 15 -65 12 0 15 14 15 65 0 51 -3 65 -15 65
-12 0 -15 -14 -15 -65z"/>
<path d="M1580 174 c0 -50 3 -64 15 -64 11 0 15 12 15 49 0 42 3 51 21 56 28
9 39 -8 39 -62 0 -24 5 -43 10 -43 15 0 12 106 -3 118 -7 6 -32 11 -55 10
l-42 0 0 -64z"/>
<path d="M1741 231 c-18 -12 -25 -152 -8 -163 21 -13 75 -9 91 8 32 32 11 64
-41 64 -18 0 -33 5 -33 10 0 6 13 10 30 10 30 0 57 30 45 50 -3 6 -1 10 4 10
6 0 11 5 11 10 0 12 -80 13 -99 1z m57 -28 c5 -17 -26 -29 -40 -15 -6 6 -7 15
-3 22 9 14 37 9 43 -7z m10 -100 c-4 -20 -45 -30 -60 -15 -16 16 1 32 33 32
24 0 30 -4 27 -17z"/>
<path d="M3530 174 c0 -50 3 -64 15 -64 11 0 15 12 15 49 0 42 3 51 21 56 28
9 39 -8 39 -62 0 -24 5 -43 10 -43 15 0 12 106 -3 118 -7 6 -32 11 -55 10
l-42 0 0 -64z"/>
<path d="M3840 220 c-54 -54 10 -132 84 -104 28 11 17 24 -14 18 -29 -6 -60 8
-60 27 0 5 20 9 45 9 40 0 45 2 45 23 0 13 -5 28 -12 35 -19 19 -66 14 -88 -8z
m74 -15 c4 -12 -3 -15 -29 -15 -33 0 -43 8 -28 23 12 13 51 7 57 -8z"/>
<path d="M4160 175 c0 -51 3 -65 15 -65 12 0 15 14 15 65 0 51 -3 65 -15 65
-12 0 -15 -14 -15 -65z"/>
<path d="M4430 175 c0 -51 3 -65 15 -65 12 0 15 14 15 65 0 51 -3 65 -15 65
-12 0 -15 -14 -15 -65z"/>
<path d="M4500 174 c0 -50 3 -64 15 -64 11 0 15 12 15 49 0 42 3 51 21 56 28
9 39 -8 39 -62 0 -24 5 -43 10 -43 15 0 12 106 -3 118 -7 6 -32 11 -55 10
l-42 0 0 -64z"/>
<path d="M4661 231 c-18 -12 -25 -152 -8 -163 21 -13 75 -9 91 8 32 32 11 64
-41 64 -18 0 -33 5 -33 10 0 6 13 10 30 10 30 0 57 30 45 50 -3 6 -1 10 4 10
6 0 11 5 11 10 0 12 -80 13 -99 1z m57 -28 c5 -17 -26 -29 -40 -15 -6 6 -7 15
-3 22 9 14 37 9 43 -7z m10 -100 c-4 -20 -45 -30 -60 -15 -16 16 1 32 33 32
24 0 30 -4 27 -17z"/>
<path d="M6637 233 c-16 -15 -5 -21 28 -16 28 4 35 2 35 -11 0 -9 -8 -16 -19
-16 -10 0 -29 -9 -42 -19 -36 -30 -16 -56 45 -57 l46 -2 0 52 c0 29 -5 57 -12
64 -13 13 -70 17 -81 5z m61 -80 c-4 -22 -48 -31 -48 -10 0 19 10 27 32 27 13
0 18 -6 16 -17z"/>
<path d="M6847 233 c-16 -15 -5 -21 28 -16 28 4 35 2 35 -11 0 -9 -8 -16 -19
-16 -10 0 -29 -9 -42 -19 -36 -30 -16 -56 45 -57 l46 -2 0 52 c0 29 -5 57 -12
64 -13 13 -70 17 -81 5z m61 -80 c-4 -22 -48 -31 -48 -10 0 19 10 27 32 27 13
0 18 -6 16 -17z"/>
<path d="M6980 174 c0 -50 3 -64 15 -64 11 0 15 12 15 49 0 42 3 51 21 56 28
9 39 -8 39 -62 0 -24 5 -43 10 -43 15 0 12 106 -3 118 -7 6 -32 11 -55 10
l-42 0 0 -64z"/>
<path d="M7141 221 c-25 -25 -27 -58 -5 -89 18 -26 65 -30 84 -7 17 21 6 29
-18 14 -17 -10 -23 -10 -36 0 -37 31 -4 97 36 72 17 -11 19 -10 16 6 -5 27
-52 29 -77 4z"/>
<path d="M7260 220 c-54 -54 10 -132 84 -104 28 11 17 24 -14 18 -29 -6 -60 8
-60 27 0 5 20 9 45 9 40 0 45 2 45 23 0 13 -5 28 -12 35 -19 19 -66 14 -88 -8z
m74 -15 c4 -12 -3 -15 -29 -15 -33 0 -43 8 -28 23 12 13 51 7 57 -8z"/>
</g>
</svg>
