<?xml version="1.0" standalone="no"?>
<!DOCTYPE svg PUBLIC "-//W3C//DTD SVG 20010904//EN"
 "http://www.w3.org/TR/2001/REC-SVG-20010904/DTD/svg10.dtd">
<svg version="1.0" xmlns="http://www.w3.org/2000/svg"
 width="200.000000pt" height="200.000000pt" viewBox="0 0 200.000000 200.000000"
 preserveAspectRatio="xMidYMid meet">
<metadata>
Created by potrace 1.14, written by Peter Selinger 2001-2017
</metadata>
<g transform="translate(0.000000,200.000000) scale(0.100000,-0.100000)"
fill="#000000" stroke="none">
<path d="M905 1996 c-5 -2 -43 -14 -82 -26 -144 -43 -261 -169 -279 -300 -5
-40 -1 -54 35 -122 23 -43 41 -83 41 -91 0 -7 -21 -36 -46 -63 -25 -27 -71
-80 -102 -119 -32 -38 -61 -75 -67 -81 -5 -6 -17 -22 -25 -34 -8 -12 -43 -58
-77 -101 -35 -43 -63 -82 -63 -87 0 -5 -6 -15 -14 -21 -29 -24 -106 -148 -145
-233 -42 -93 -81 -217 -81 -261 0 -62 68 -19 155 99 28 37 74 92 103 123 50
52 55 54 67 38 7 -10 18 -47 24 -83 12 -65 89 -313 116 -371 8 -17 15 -34 15
-37 0 -3 14 -34 31 -68 16 -35 33 -79 37 -98 10 -45 47 -59 165 -59 97 -1 127
14 127 65 0 33 -46 79 -91 92 -106 29 -160 102 -204 274 -14 56 -33 128 -41
158 -46 178 -45 378 4 510 31 86 122 232 172 277 30 27 95 60 133 68 37 7 34
17 -14 50 -66 46 -84 80 -84 156 0 53 5 72 25 102 51 76 172 107 225 57 33
-31 42 -66 48 -180 3 -52 10 -106 17 -120 7 -17 33 -36 73 -54 148 -70 248
-170 325 -327 35 -72 76 -227 86 -324 15 -147 -45 -406 -123 -525 -57 -88 -71
-101 -130 -124 -69 -27 -101 -53 -101 -84 0 -43 54 -67 149 -67 75 0 77 1 119
39 43 40 59 63 87 126 8 19 20 43 25 52 44 79 90 292 90 420 0 55 4 100 10
103 6 4 26 -9 46 -29 19 -19 50 -47 67 -62 60 -50 151 -129 199 -173 62 -57
62 -46 2 138 -49 149 -153 350 -239 461 -36 46 -192 204 -357 361 -32 31 -38
43 -38 77 0 34 8 51 47 99 100 123 283 263 344 263 l23 0 -22 23 c-21 20 -31
22 -125 21 -76 -1 -117 -7 -161 -23 -64 -23 -111 -27 -121 -11 -15 25 -92 62
-163 80 -73 19 -215 34 -237 26z m343 -166 c43 -27 48 -89 9 -121 -64 -52
-177 -13 -177 60 0 67 99 103 168 61z"/>
</g>
</svg>
